<svg xmlns="http://www.w3.org/2000/svg" viewBox="0 0 21 21" height="21" width="21"><title>landmark-15.svg</title><path fill="none" d="M0 0h21v21H0z"/><path fill="#293a99" d="M15.5 15H15v-.5c0-.3-.2-.5-.5-.5H14V9h1l1-2c-1 .1-2 .1-3 0-.8-.6-1.4-1.2-2-2v-.5c0-.3-.2-.5-.5-.5s-.5.2-.5.5V5c-.6.8-1.2 1.4-2 2-1 .1-2 .1-3 0l1 2h1v5h-.5c-.3 0-.5.2-.5.5v.5h-.5c-.3 0-.5.2-.5.5v.5h11v-.5c0-.3-.2-.5-.5-.5zM10 14H8V9h2v5zm3 0h-2V9h2v5z" stroke="#293a99" stroke-width="2" stroke-linejoin="round"/><path fill="#c8c8e6" d="M15.5 15H15v-.5c0-.3-.2-.5-.5-.5H14V9h1l1-2c-1 .1-2 .1-3 0-.8-.6-1.4-1.2-2-2v-.5c0-.3-.2-.5-.5-.5s-.5.2-.5.5V5c-.6.8-1.2 1.4-2 2-1 .1-2 .1-3 0l1 2h1v5h-.5c-.3 0-.5.2-.5.5v.5h-.5c-.3 0-.5.2-.5.5v.5h11v-.5c0-.3-.2-.5-.5-.5zM10 14H8V9h2v5zm3 0h-2V9h2v5z"/></svg>