<svg xmlns="http://www.w3.org/2000/svg" viewBox="0 0 21 21" height="21" width="21"><title>town-hall-15.svg</title><path fill="none" d="M0 0h21v21H0z"/><path fill="#293a99" d="M10.5 3L4 6.445V7h13v-.555L10.5 3zM5 8v5l-1 1.555V16h13v-1.445L16 13V8H5zm2 1h1v5.5H7V9zm3 0h1v5.5h-1V9zm3 0h1v5.5h-1V9z" stroke="#293a99" stroke-width="2" stroke-linejoin="round"/><path fill="#c8c8e6" d="M10.5 3L4 6.445V7h13v-.555L10.5 3zM5 8v5l-1 1.555V16h13v-1.445L16 13V8H5zm2 1h1v5.5H7V9zm3 0h1v5.5h-1V9zm3 0h1v5.5h-1V9z"/></svg>