<svg xmlns="http://www.w3.org/2000/svg" viewBox="0 0 21 21" height="21" width="21"><title>stadium-15.svg</title><path fill="none" d="M0 0h21v21H0z"/><path fill="#293a99" d="M10 4v4.01c-2.83.094-4.998.957-5 1.99v4.5c0 1.105 2.462 2 5.5 2s5.5-.895 5.5-2V10c-.002-1.034-2.17-1.896-5-1.99v-.947l3-1.313L10 4zm-4 7.146c.515.268 1.201.485 2 .633v2.967c-1.205-.269-2-.726-2-1.246v-2.354zm9 .002V13.5c0 .52-.795.977-2 1.246v-2.965c.799-.148 1.485-.366 2-.633zm-6 .774a14.68 14.68 0 0 0 3 .002v2.984c-.471.056-.971.092-1.5.092s-1.029-.036-1.5-.092v-2.986z" stroke="#293a99" stroke-width="2" stroke-linejoin="round"/><path fill="#c8c8e6" d="M10 4v4.01c-2.83.094-4.998.957-5 1.99v4.5c0 1.105 2.462 2 5.5 2s5.5-.895 5.5-2V10c-.002-1.034-2.17-1.896-5-1.99v-.947l3-1.313L10 4zm-4 7.146c.515.268 1.201.485 2 .633v2.967c-1.205-.269-2-.726-2-1.246v-2.354zm9 .002V13.5c0 .52-.795.977-2 1.246v-2.965c.799-.148 1.485-.366 2-.633zm-6 .774a14.68 14.68 0 0 0 3 .002v2.984c-.471.056-.971.092-1.5.092s-1.029-.036-1.5-.092v-2.986z"/></svg>