<svg xmlns="http://www.w3.org/2000/svg" viewBox="0 0 21 21" height="21" width="21"><title>place-of-worship-15.svg</title><path fill="none" d="M0 0h21v21H0z"/><path fill="#293a99" d="M10.5 3l-2 2v2h4V5l-2-2zm-2 4.5L7 9h7l-1.5-1.5h-4zM5 9.5a1 1 0 0 0-1 1V16h2v-5.5a1 1 0 0 0-1-1zm2 0V16h7V9.5H7zm9 0a1 1 0 0 0-1 1V16h2v-5.5a1 1 0 0 0-1-1z" stroke="#293a99" stroke-width="2" stroke-linejoin="round"/><path fill="#c8c8e6" d="M10.5 3l-2 2v2h4V5l-2-2zm-2 4.5L7 9h7l-1.5-1.5h-4zM5 9.5a1 1 0 0 0-1 1V16h2v-5.5a1 1 0 0 0-1-1zm2 0V16h7V9.5H7zm9 0a1 1 0 0 0-1 1V16h2v-5.5a1 1 0 0 0-1-1z"/></svg>