<svg xmlns="http://www.w3.org/2000/svg" viewBox="0 0 21 21" height="21" width="21"><title>castle-15.svg</title><path fill="none" d="M0 0h21v21H0z"/><path fill="#293a99" d="M14 7H7a1 1 0 0 1-1-1V3.5a.5.5 0 0 1 1 0V5h1V4a1 1 0 1 1 2 0v1h1V4a1 1 0 1 1 2 0v1h1V3.5a.5.5 0 0 1 1 0V6a1 1 0 0 1-1 1zm3 10.5a.5.5 0 0 1-.5.5h-12a.5.5 0 0 1 0-1H5a1 1 0 0 0 1-1s1-6 1-7a1 1 0 0 1 1-1h5a1 1 0 0 1 1 1c0 1 1 7 1 7a1 1 0 0 0 1 1h.5a.5.5 0 0 1 .5.49v.01zm-5-4a1.5 1.5 0 0 0-3 0V17h3v-3.5z" stroke="#293a99" stroke-width="2" stroke-linejoin="round"/><path fill="#c8c8e6" d="M14 7H7a1 1 0 0 1-1-1V3.5a.5.5 0 0 1 1 0V5h1V4a1 1 0 1 1 2 0v1h1V4a1 1 0 1 1 2 0v1h1V3.5a.5.5 0 0 1 1 0V6a1 1 0 0 1-1 1zm3 10.5a.5.5 0 0 1-.5.5h-12a.5.5 0 0 1 0-1H5a1 1 0 0 0 1-1s1-6 1-7a1 1 0 0 1 1-1h5a1 1 0 0 1 1 1c0 1 1 7 1 7a1 1 0 0 0 1 1h.5a.5.5 0 0 1 .5.49v.01zm-5-4a1.5 1.5 0 0 0-3 0V17h3v-3.5z"/></svg>